HIERARCHY
ROOT root
{
	OFFSET	0	13.1	24.9
	CHANNELS 6  Xposition Yposition Zposition Xrotation Yrotation Zrotation
	JOINT spine_1
	{
		OFFSET	0	9.99999	0
		CHANNELS 3  Xrotation Yrotation Zrotation
		JOINT spine_2
		{
			OFFSET	0	112	-10
			CHANNELS 3  Xrotation Yrotation Zrotation
			JOINT spine_3
			{
				OFFSET	0	206.5	19.3
				CHANNELS 3  Xrotation Yrotation Zrotation
				JOINT spine_4
				{
					OFFSET	0	110.4	14.6
					CHANNELS 3  Xrotation Yrotation Zrotation
					JOINT neck_1
					{
						OFFSET	0	71.8	-50.3
						CHANNELS 3  Xrotation Yrotation Zrotation
						JOINT neck_2
						{
							OFFSET	0	86.2	-25.8
							CHANNELS 3  Xrotation Yrotation Zrotation
							JOINT head_ee
							{
								OFFSET	0	179.8	-8.7
								CHANNELS 3  Xrotation Yrotation Zrotation
								End Site
								{
									OFFSET	1	0	0
								}
							}
						}
					}
					JOINT left_clavicle
					{
						OFFSET	-43.2	22.4	-70.8
						CHANNELS 3  Xrotation Yrotation Zrotation
						JOINT left_shoulder
						{
							OFFSET	-93.9	-5.79999	48.7
							CHANNELS 3  Xrotation Yrotation Zrotation
							JOINT left_elbow
							{
								OFFSET	-291.4	-30.8	15.2
								CHANNELS 3  Xrotation Yrotation Zrotation
								JOINT left_lowarm_twist
								{
									OFFSET	-110.7	-3.89999	13.6
									CHANNELS 3  Xrotation Yrotation Zrotation
									JOINT left_hand
									{
										OFFSET	-110.7	-3.89999	13.6
										CHANNELS 3  Xrotation Yrotation Zrotation
										JOINT left_ee
										{
											OFFSET	-80.8	-5.10001	12.1
											CHANNELS 3  Xrotation Yrotation Zrotation
											End Site
											{
												OFFSET	1	0	0
											}
										}
									}
								}
							}
						}
					}
					JOINT right_clavicle
					{
						OFFSET	43.2	22.4	-70.8
						CHANNELS 3  Xrotation Yrotation Zrotation
						JOINT right_shoulder
						{
							OFFSET	93.9	-5.79999	48.7
							CHANNELS 3  Xrotation Yrotation Zrotation
							JOINT right_elbow
							{
								OFFSET	291.4	-30.8	15.2
								CHANNELS 3  Xrotation Yrotation Zrotation
								JOINT right_lowarm_twist
								{
									OFFSET	110.7	-3.89999	13.6
									CHANNELS 3  Xrotation Yrotation Zrotation
									JOINT right_hand
									{
										OFFSET	110.7	-3.89999	13.6
										CHANNELS 3  Xrotation Yrotation Zrotation
										JOINT right_ee
										{
											OFFSET	80.8	-5.10001	12.1
											CHANNELS 3  Xrotation Yrotation Zrotation
											End Site
											{
												OFFSET	1	0	0
											}
										}
									}
								}
							}
						}
					}
				}
			}
		}
	}
	JOINT left_hip
	{
		OFFSET	-82.8	-127.5	0.300001
		CHANNELS 3  Xrotation Yrotation Zrotation
		JOINT left_knee
		{
			OFFSET	-28.2	-396.7	2.2
			CHANNELS 3  Xrotation Yrotation Zrotation
			JOINT left_ankle
			{
				OFFSET	-11.7	-411.3	35.4
				CHANNELS 3  Xrotation Yrotation Zrotation
				JOINT left_toes
				{
					OFFSET	0	-60	-88.6
					CHANNELS 3  Xrotation Yrotation Zrotation
					JOINT left_foot_ee
					{
						OFFSET	-22.5	-16.5	-42.2
						CHANNELS 3  Xrotation Yrotation Zrotation
						End Site
						{
							OFFSET	1	0	0
						}
					}
				}
			}
		}
	}
	JOINT right_hip
	{
		OFFSET	82.8	-127.5	0.300001
		CHANNELS 3  Xrotation Yrotation Zrotation
		JOINT right_knee
		{
			OFFSET	28.2	-396.7	2.2
			CHANNELS 3  Xrotation Yrotation Zrotation
			JOINT right_ankle
			{
				OFFSET	11.7	-411.3	35.4
				CHANNELS 3  Xrotation Yrotation Zrotation
				JOINT right_toes
				{
					OFFSET	0	-60	-88.6
					CHANNELS 3  Xrotation Yrotation Zrotation
					JOINT right_foot_ee
					{
						OFFSET	22.5	-16.5	-42.2
						CHANNELS 3  Xrotation Yrotation Zrotation
						End Site
						{
							OFFSET	1	0	0
						}
					}
				}
			}
		}
	}
}
MOTION
Frames: 6
Frame Time: 0.02
2223.47 742.511 -1463.09 15.0115 56.7882 -14.5537 -2.56685 0.598874 2.95169 -2.56209 0.409922 2.98377 -2.53452 -0.359074 2.99031 -2.54698 0.117476 3.00948 -14.3557 19.0179 -3.81599 -15.7766 38.5752 3.20143 -0.0 0.0 -0.0 -4.36513 23.5554 -3.25754 8.96912 0.732376 68.819 2.31535 -48.9087 1.05305 12.7544 0.271928 -1.60322 1.50217 22.3408 17.9749 -0.0 0.0 -0.0 11.3702 26.4119 -21.9024 -12.2131 35.0538 -59.3455 0.76827 20.8357 -0.141253 48.3548 0.853566 5.93702 0.241383 -9.77705 -5.60605 0.0 0.0 0.0 -10.3217 24.8668 1.40196 -3.4924 0.127956 0.520617 22.632 13.9392 -3.07479 -31.3798 0.0 0.0 -0.0 0.0 -0.0 -6.13282 21.5666 1.44834 -6.37921 -0.209597 -0.956081 19.4877 10.5173 2.79877 -15.3981 0.0 0.0 0.0 0.0 0.0 
2214.64 742.392 -1459.91 15.0429 58.3992 -14.5933 -2.55507 0.460386 2.97163 -2.5502 0.270447 2.99487 -2.5301 -0.49677 2.96576 -2.54237 -0.0223687 3.00696 -14.3688 18.1085 -4.51195 -15.6513 37.2537 2.15957 -0.0 0.0 -0.0 -4.33986 23.413 -3.25667 10.2242 0.591033 69.099 2.48613 -50.916 1.18373 11.1387 0.257329 -1.39736 0.811669 21.4546 13.4803 -0.0 0.0 -0.0 10.8229 25.6776 -20.7464 -12.9558 35.598 -59.7089 0.716534 19.5423 -0.123397 48.9136 0.892139 5.99727 0.213848 -11.8871 -6.26447 0.0 0.0 0.0 -11.6119 25.4574 2.34962 -1.01031 0.0402802 0.149811 22.8403 11.9752 -3.08874 -34.3921 0.0 0.0 -0.0 0.0 -0.0 -5.97326 22.1857 1.59302 -8.25339 -0.250808 -1.24072 21.7751 9.12929 3.06804 -15.5904 0.0 0.0 0.0 0.0 0.0 
2209.93 741.763 -1457.01 14.3575 59.1442 -13.8281 -2.50406 0.356055 2.81408 -2.49967 0.176339 2.83102 -2.48586 -0.544226 2.78385 -2.49666 -0.0979245 2.83481 -14.1245 17.8172 -4.95253 -15.3213 36.9596 1.52548 -0.0 0.0 -0.0 -4.35401 23.3236 -3.29769 11.1002 0.76741 69.172 2.62407 -52.4201 1.29194 11.0362 0.256208 -1.38433 0.571445 20.8648 11.8269 -0.0 0.0 -0.0 10.719 25.1149 -20.5713 -12.9661 35.0423 -59.8498 0.645732 17.7383 -0.100764 49.2212 0.91362 6.03028 0.156544 -12.9931 -6.3352 0.0 0.0 0.0 -12.3028 25.555 2.92036 1.25578 -0.0537448 -0.185204 21.7288 11.4824 -2.95183 -36.4549 0.0 0.0 -0.0 0.0 -0.0 -5.66589 22.4894 1.71303 -8.45549 -0.254695 -1.27149 22.839 8.13871 3.18443 -15.583 0.0 0.0 0.0 0.0 0.0 
2208.43 745.667 -1455.87 13.8197 60.1794 -13.438 -2.46723 0.240576 2.66643 -2.46327 0.0704782 2.67633 -2.45566 -0.606282 2.60776 -2.4651 -0.186981 2.67072 -13.7921 17.2593 -5.30456 -14.8474 36.1099 0.832778 -0.0 0.0 -0.0 -4.19492 23.1959 -3.1066 12.0429 0.823217 69.4231 2.76333 -53.8409 1.40336 10.5824 0.25096 -1.3266 0.300949 20.4014 10.0311 -0.0 0.0 -0.0 10.4496 25.2441 -19.9516 -13.6314 35.0894 -59.7945 0.655793 17.997 -0.103851 49.5605 0.937527 6.06655 0.0838179 -14.9742 -6.65329 0.0 0.0 0.0 -13.1136 23.8413 3.61564 3.1828 -0.144093 -0.467048 22.2222 9.34714 -3.00503 -37.7646 0.0 0.0 -0.0 0.0 -0.0 -4.98769 23.6976 1.50056 -8.95288 -0.263799 -1.34727 22.0129 6.37854 3.05903 -15.8711 0.0 0.0 0.0 0.0 0.0 
2204.41 745.339 -1457.16 13.279 60.876 -13.1216 -2.4851 0.280233 2.55956 -2.48146 0.116848 2.5722 -2.4721 -0.535814 2.51852 -2.48093 -0.131474 2.57149 -14.4447 17.1563 -5.39276 -15.6003 35.9606 0.956979 -0.0 0.0 -0.0 -4.20281 23.1036 -3.13925 12.5178 0.834569 69.458 2.8956 -55.1067 1.51102 10.2947 0.247396 -1.29002 0.118529 19.8199 8.71796 -0.0 0.0 -0.0 10.1928 25.4918 -19.3492 -13.4838 35.1773 -60.1316 0.606162 16.7138 -0.0890453 49.6272 0.942251 6.07367 0.080463 -15.0803 -6.67371 0.0 0.0 0.0 -13.2838 24.8332 3.97089 4.38929 -0.205475 -0.641935 21.4014 9.62102 -2.90595 -39.0697 0.0 0.0 -0.0 0.0 -0.0 -4.7517 23.038 1.64914 -8.47242 -0.255015 -1.27407 23.2845 5.76865 3.20619 -15.9708 0.0 0.0 0.0 0.0 0.0 
2202.71 746.982 -1456.68 12.3641 60.9658 -12.0567 -2.44716 0.241733 2.46429 -2.44379 0.0844826 2.47467 -2.43642 -0.541027 2.41632 -2.44454 -0.152747 2.4714 -14.4556 16.9672 -5.6685 -15.5865 35.7633 0.622379 -0.0 0.0 -0.0 -4.05896 22.5226 -3.07224 13.6145 0.983594 69.5607 2.90439 -55.188 1.51823 10.0641 0.244408 -1.26072 -0.0642184 19.7344 7.58564 -0.0 0.0 -0.0 10.2199 25.875 -19.3695 -13.1709 35.4095 -60.4004 0.623318 17.1594 -0.0940432 49.882 0.960375 6.10079 0.0821635 -16.1033 -7.08162 0.0 0.0 0.0 -13.8918 25.1463 4.35858 5.23909 -0.250921 -0.764339 21.4655 8.98261 -2.91246 -39.8775 0.0 0.0 -0.0 0.0 -0.0 -4.34621 23.3403 1.47864 -8.6749 -0.258792 -1.30491 22.4462 6.20395 3.10994 -16.5461 0.0 0.0 0.0 0.0 0.0 
